<svg xmlns="http://www.w3.org/2000/svg" xmlns:xlink="http://www.w3.org/1999/xlink" viewBox="0 0 1024 1024" width="150" height="150"><defs><clipPath id="a"><rect width="1024" height="1024" fill="none"/></clipPath><clipPath id="b"><path d="M512,1304a6.1,6.1,0,0,1-6.2,6H-275.4a6.1,6.1,0,0,1-6.2-6V-220a6.1,6.1,0,0,1,6.2-6H505.8a6.1,6.1,0,0,1,6.2,6Z" fill="none"/></clipPath><clipPath id="c"><path d="M1305.6,1304a6.1,6.1,0,0,1-6.2,6H518.2a6.1,6.1,0,0,1-6.2-6V-220a6.1,6.1,0,0,1,6.2-6h781.2a6.1,6.1,0,0,1,6.2,6Z" fill="none"/></clipPath></defs><title>Ψ</title><g style="isolation:isolate"><g clip-path="url(#a)"><rect width="512" height="1024" fill="#007acc"/><rect x="512" width="512" height="1024" fill="#f7df1e"/><g opacity="0.33"><rect x="-0.5" y="-0.5" width="103.4" height="103.4" fill="#b7b7b7"/><rect x="101.9" y="-0.5" width="103.4" height="103.4" fill="#b9b9b9"/><rect x="204.3" y="-0.5" width="103.4" height="103.4" fill="#bababa"/><rect x="306.7" y="-0.5" width="103.4" height="103.4" fill="#bcbcbc"/><rect x="409.1" y="-0.5" width="103.4" height="103.4" fill="#bbb"/><rect x="511.5" y="-0.5" width="103.4" height="103.4" fill="#bbb"/><rect x="613.9" y="-0.5" width="103.4" height="103.4" fill="#bababa"/><rect x="716.3" y="-0.5" width="103.4" height="103.4" fill="#bababa"/><rect x="818.7" y="-0.5" width="103.4" height="103.4" fill="#b9b9b9"/><rect x="921.1" y="-0.5" width="103.4" height="103.4" fill="#b8b8b8"/><rect x="-0.5" y="101.9" width="103.4" height="103.4" fill="#b7b7b7"/><rect x="101.9" y="101.9" width="103.4" height="103.4" fill="#b9b9b9"/><rect x="204.3" y="101.9" width="103.4" height="103.4" fill="#bbb"/><rect x="306.7" y="101.9" width="103.4" height="103.4" fill="#c4c4c4"/><rect x="409.1" y="101.9" width="103.4" height="103.4" fill="#ccc"/><rect x="511.5" y="101.9" width="103.4" height="103.4" fill="#cdcdcd"/><rect x="613.9" y="101.9" width="103.4" height="103.4" fill="#c8c8c8"/><rect x="716.3" y="101.9" width="103.4" height="103.4" fill="#c1c1c1"/><rect x="818.7" y="101.9" width="103.4" height="103.4" fill="#bababa"/><rect x="921.1" y="101.9" width="103.4" height="103.4" fill="#b9b9b9"/><rect x="-0.5" y="204.3" width="103.4" height="103.4" fill="#b7b7b7"/><rect x="101.9" y="204.3" width="103.4" height="103.4" fill="#bababa"/><rect x="204.3" y="204.3" width="103.4" height="103.4" fill="#c8c8c8"/><rect x="306.7" y="204.3" width="103.4" height="103.4" fill="#dcdcdc"/><rect x="409.1" y="204.3" width="103.4" height="103.4" fill="#e7e7e7"/><rect x="511.5" y="204.3" width="103.4" height="103.4" fill="#e5e5e5"/><rect x="613.9" y="204.3" width="103.4" height="103.4" fill="#dbdbdb"/><rect x="716.3" y="204.3" width="103.4" height="103.4" fill="#d0d0d0"/><rect x="818.7" y="204.3" width="103.4" height="103.4" fill="#c1c1c1"/><rect x="921.1" y="204.3" width="103.4" height="103.4" fill="#b9b9b9"/><rect x="-0.5" y="306.7" width="103.4" height="103.4" fill="#b9b9b9"/><rect x="101.9" y="306.7" width="103.4" height="103.4" fill="#c2c2c2"/><rect x="204.3" y="306.7" width="103.4" height="103.4" fill="#d9d9d9"/><rect x="306.7" y="306.7" width="103.4" height="103.4" fill="#ececec"/><rect x="409.1" y="306.7" width="103.4" height="103.4" fill="#eee"/><rect x="511.5" y="306.7" width="103.4" height="103.4" fill="#efefef"/><rect x="613.9" y="306.7" width="103.4" height="103.4" fill="#ebebeb"/><rect x="716.3" y="306.7" width="103.4" height="103.4" fill="#d5d5d5"/><rect x="818.7" y="306.7" width="103.4" height="103.4" fill="#c8c8c8"/><rect x="921.1" y="306.7" width="103.4" height="103.4" fill="#bebebe"/><rect x="-0.5" y="409.1" width="103.4" height="103.4" fill="#b9b9b9"/><rect x="101.9" y="409.1" width="103.4" height="103.4" fill="#c9c9c9"/><rect x="204.3" y="409.1" width="103.4" height="103.4" fill="#e2e2e2"/><rect x="306.7" y="409.1" width="103.4" height="103.4" fill="#eee"/><rect x="409.1" y="409.1" width="103.4" height="103.4" fill="#eee"/><rect x="511.5" y="409.1" width="103.4" height="103.4" fill="#eee"/><rect x="613.9" y="409.1" width="103.4" height="103.4" fill="#ededed"/><rect x="716.3" y="409.1" width="103.4" height="103.4" fill="#dbdbdb"/><rect x="818.7" y="409.1" width="103.4" height="103.4" fill="#c6c6c6"/><rect x="921.1" y="409.1" width="103.4" height="103.4" fill="#bebebe"/><rect x="-0.5" y="511.5" width="103.4" height="103.4" fill="#bbb"/><rect x="101.9" y="511.5" width="103.4" height="103.4" fill="#cbcbcb"/><rect x="204.3" y="511.5" width="103.4" height="103.4" fill="#e0e0e0"/><rect x="306.7" y="511.5" width="103.4" height="103.4" fill="#ededed"/><rect x="409.1" y="511.5" width="103.4" height="103.4" fill="#ededed"/><rect x="511.5" y="511.5" width="103.4" height="103.4" fill="#ededed"/><rect x="613.9" y="511.5" width="103.4" height="103.4" fill="#eaeaea"/><rect x="716.3" y="511.5" width="103.4" height="103.4" fill="#d8d8d8"/><rect x="818.7" y="511.5" width="103.4" height="103.4" fill="#c3c3c3"/><rect x="921.1" y="511.5" width="103.4" height="103.4" fill="#bababa"/><rect x="-0.5" y="613.9" width="103.4" height="103.4" fill="#bababa"/><rect x="101.9" y="613.9" width="103.4" height="103.4" fill="#c7c7c7"/><rect x="204.3" y="613.9" width="103.4" height="103.4" fill="#d9d9d9"/><rect x="306.7" y="613.9" width="103.4" height="103.4" fill="#e5e5e5"/><rect x="409.1" y="613.9" width="103.4" height="103.4" fill="#ebebeb"/><rect x="511.5" y="613.9" width="103.4" height="103.4" fill="#eaeaea"/><rect x="613.9" y="613.9" width="103.4" height="103.4" fill="#e7e7e7"/><rect x="716.3" y="613.9" width="103.4" height="103.4" fill="#cbcbcb"/><rect x="818.7" y="613.9" width="103.4" height="103.4" fill="#bdbdbd"/><rect x="921.1" y="613.9" width="103.4" height="103.4" fill="#b6b6b6"/><rect x="-0.5" y="716.3" width="103.4" height="103.4" fill="#b9b9b9"/><rect x="101.9" y="716.3" width="103.4" height="103.4" fill="#bebebe"/><rect x="204.3" y="716.3" width="103.4" height="103.4" fill="#ccc"/><rect x="306.7" y="716.3" width="103.4" height="103.4" fill="#d2d2d2"/><rect x="409.1" y="716.3" width="103.4" height="103.4" fill="#dcdcdc"/><rect x="511.5" y="716.3" width="103.4" height="103.4" fill="#ddd"/><rect x="613.9" y="716.3" width="103.4" height="103.4" fill="#ccc"/><rect x="716.3" y="716.3" width="103.4" height="103.4" fill="#bcbcbc"/><rect x="818.7" y="716.3" width="103.4" height="103.4" fill="#b4b4b4"/><rect x="921.1" y="716.3" width="103.4" height="103.4" fill="#b0b0b0"/><rect x="-0.5" y="818.7" width="103.4" height="103.4" fill="#b7b7b7"/><rect x="101.9" y="818.7" width="103.4" height="103.4" fill="#b2b2b2"/><rect x="204.3" y="818.7" width="103.4" height="103.4" fill="#b8b8b8"/><rect x="306.7" y="818.7" width="103.4" height="103.4" fill="#bdbdbd"/><rect x="409.1" y="818.7" width="103.4" height="103.4" fill="#bababa"/><rect x="511.5" y="818.7" width="103.4" height="103.4" fill="#b7b7b7"/><rect x="613.9" y="818.7" width="103.4" height="103.4" fill="#b2b2b2"/><rect x="716.3" y="818.7" width="103.4" height="103.4" fill="#aeaeae"/><rect x="818.7" y="818.7" width="103.4" height="103.4" fill="#acacac"/><rect x="921.1" y="818.7" width="103.4" height="103.4" fill="#ababab"/><rect x="-0.5" y="921.1" width="103.4" height="103.4" fill="#b3b3b3"/><rect x="101.9" y="921.1" width="103.4" height="103.4" fill="#afafaf"/><rect x="204.3" y="921.1" width="103.4" height="103.4" fill="#ababab"/><rect x="306.7" y="921.1" width="103.4" height="103.4" fill="#adadad"/><rect x="409.1" y="921.1" width="103.4" height="103.4" fill="#adadad"/><rect x="511.5" y="921.1" width="103.4" height="103.4" fill="#aaa"/><rect x="613.9" y="921.1" width="103.4" height="103.4" fill="#a8a8a8"/><rect x="716.3" y="921.1" width="103.4" height="103.4" fill="#a6a6a6"/><rect x="818.7" y="921.1" width="103.4" height="103.4" fill="#a6a6a6"/><rect x="921.1" y="921.1" width="103.4" height="103.4" fill="#a6a6a6"/></g><line x1="512" y1="1024" x2="512" fill="none" stroke="#231f20" stroke-miterlimit="10" stroke-width="12.8" opacity="0.75" style="mix-blend-mode:difference"/><g clip-path="url(#b)"><path d="M595.4,787.2a11,11,0,0,1-8.5-6.4C522.2,618.4,457.1,463.5,392.7,316.2c-1.2-2.9-3-5.1-3.9-5s-1.5,3-1.2,6.2l10.2,190.3c.2,3.3.3,8.7.3,12V784.9a7.3,7.3,0,0,1-6.2,6.9c-20.5,3-41,6.7-61.3,11.3-3.4.8-6.1-1.3-6.1-4.6V242.1a8,8,0,0,1,6.1-7.4A813.8,813.8,0,0,1,426,219.1a8.7,8.7,0,0,1,8.6,4.7C500,375.1,566.1,534.2,631.3,701.1c1.2,3.2,3,6,4,6.1s1.4-2.4,1-5.8q-5.1-97.8-10.1-195.7c-.2-3.3-.3-8.8-.3-12.1V228.4a5.2,5.2,0,0,1,6.2-5.1c20.5,3,41,6.8,61.3,11.4a8.1,8.1,0,0,1,6.2,7.4V798.5c0,3.3-2.8,5.4-6.2,4.6A816.4,816.4,0,0,0,595.4,787.2Z" fill="#fff"/></g><g clip-path="url(#c)"><path d="M595.4,787.2a11,11,0,0,1-8.5-6.4C522.2,618.4,457.1,463.5,392.7,316.2c-1.2-2.9-3-5.1-3.9-5s-1.5,3-1.2,6.2l10.2,190.3c.2,3.3.3,8.7.3,12V784.9a7.3,7.3,0,0,1-6.2,6.9c-20.5,3-41,6.7-61.3,11.3-3.4.8-6.1-1.3-6.1-4.6V242.1a8,8,0,0,1,6.1-7.4A813.8,813.8,0,0,1,426,219.1a8.7,8.7,0,0,1,8.6,4.7C500,375.1,566.1,534.2,631.3,701.1c1.2,3.2,3,6,4,6.1s1.4-2.4,1-5.8q-5.1-97.8-10.1-195.7c-.2-3.3-.3-8.8-.3-12.1V228.4a5.2,5.2,0,0,1,6.2-5.1c20.5,3,41,6.8,61.3,11.4a8.1,8.1,0,0,1,6.2,7.4V798.5c0,3.3-2.8,5.4-6.2,4.6A816.4,816.4,0,0,0,595.4,787.2Z"/></g><g opacity="0.1" style="mix-blend-mode:difference"><g clip-path="url(#b)"><path d="M595.4,787.2a11,11,0,0,1-8.5-6.4C522.2,618.4,457.1,463.5,392.7,316.2c-1.2-2.9-3-5.1-3.9-5s-1.5,3-1.2,6.2l10.2,190.3c.2,3.3.3,8.7.3,12V784.9a7.3,7.3,0,0,1-6.2,6.9c-20.5,3-41,6.7-61.3,11.3-3.4.8-6.1-1.3-6.1-4.6V242.1a8,8,0,0,1,6.1-7.4A813.8,813.8,0,0,1,426,219.1a8.7,8.7,0,0,1,8.6,4.7C500,375.1,566.1,534.2,631.3,701.1c1.2,3.2,3,6,4,6.1s1.4-2.4,1-5.8q-5.1-97.8-10.1-195.7c-.2-3.3-.3-8.8-.3-12.1V228.4a5.2,5.2,0,0,1,6.2-5.1c20.5,3,41,6.8,61.3,11.4a8.1,8.1,0,0,1,6.2,7.4V798.5c0,3.3-2.8,5.4-6.2,4.6A816.4,816.4,0,0,0,595.4,787.2Z" fill="none" stroke="gray" stroke-linecap="square" stroke-linejoin="bevel" stroke-width="10.24"/><path d="M595.4,787.2a11,11,0,0,1-8.5-6.4C522.2,618.4,457.1,463.5,392.7,316.2c-1.2-2.9-3-5.1-3.9-5s-1.5,3-1.2,6.2l10.2,190.3c.2,3.3.3,8.7.3,12V784.9a7.3,7.3,0,0,1-6.2,6.9c-20.5,3-41,6.7-61.3,11.3-3.4.8-6.1-1.3-6.1-4.6V242.1a8,8,0,0,1,6.1-7.4A813.8,813.8,0,0,1,426,219.1a8.7,8.7,0,0,1,8.6,4.7C500,375.1,566.1,534.2,631.3,701.1c1.2,3.2,3,6,4,6.1s1.4-2.4,1-5.8q-5.1-97.8-10.1-195.7c-.2-3.3-.3-8.8-.3-12.1V228.4a5.2,5.2,0,0,1,6.2-5.1c20.5,3,41,6.8,61.3,11.4a8.1,8.1,0,0,1,6.2,7.4V798.5c0,3.3-2.8,5.4-6.2,4.6A816.4,816.4,0,0,0,595.4,787.2Z" fill="none" stroke="gray" stroke-linecap="square" stroke-linejoin="bevel" stroke-width="10.24"/><path d="M595.4,787.2a11,11,0,0,1-8.5-6.4C522.2,618.4,457.1,463.5,392.7,316.2c-1.2-2.9-3-5.1-3.9-5s-1.5,3-1.2,6.2l10.2,190.3c.2,3.3.3,8.7.3,12V784.9a7.3,7.3,0,0,1-6.2,6.9c-20.5,3-41,6.7-61.3,11.3-3.4.8-6.1-1.3-6.1-4.6V242.1a8,8,0,0,1,6.1-7.4A813.8,813.8,0,0,1,426,219.1a8.7,8.7,0,0,1,8.6,4.7C500,375.1,566.1,534.2,631.3,701.1c1.2,3.2,3,6,4,6.1s1.4-2.4,1-5.8q-5.1-97.8-10.1-195.7c-.2-3.3-.3-8.8-.3-12.1V228.4a5.2,5.2,0,0,1,6.2-5.1c20.5,3,41,6.8,61.3,11.4a8.1,8.1,0,0,1,6.2,7.4V798.5c0,3.3-2.8,5.4-6.2,4.6A816.4,816.4,0,0,0,595.4,787.2Z" fill="none" stroke="gray" stroke-linecap="square" stroke-linejoin="bevel" stroke-width="10.24"/></g><g clip-path="url(#c)"><path d="M595.4,787.2a11,11,0,0,1-8.5-6.4C522.2,618.4,457.1,463.5,392.7,316.2c-1.2-2.9-3-5.1-3.9-5s-1.5,3-1.2,6.2l10.2,190.3c.2,3.3.3,8.7.3,12V784.9a7.3,7.3,0,0,1-6.2,6.9c-20.5,3-41,6.7-61.3,11.3-3.4.8-6.1-1.3-6.1-4.6V242.1a8,8,0,0,1,6.1-7.4A813.8,813.8,0,0,1,426,219.1a8.7,8.7,0,0,1,8.6,4.7C500,375.1,566.1,534.2,631.3,701.1c1.2,3.2,3,6,4,6.1s1.4-2.4,1-5.8q-5.1-97.8-10.1-195.7c-.2-3.3-.3-8.8-.3-12.1V228.4a5.2,5.2,0,0,1,6.2-5.1c20.5,3,41,6.8,61.3,11.4a8.1,8.1,0,0,1,6.2,7.4V798.5c0,3.3-2.8,5.4-6.2,4.6A816.4,816.4,0,0,0,595.4,787.2Z" fill="none" stroke="gray" stroke-linecap="square" stroke-linejoin="bevel" stroke-width="10.24"/><path d="M595.4,787.2a11,11,0,0,1-8.5-6.4C522.2,618.4,457.1,463.5,392.7,316.2c-1.2-2.9-3-5.1-3.9-5s-1.5,3-1.2,6.2l10.2,190.3c.2,3.3.3,8.7.3,12V784.9a7.3,7.3,0,0,1-6.2,6.9c-20.5,3-41,6.7-61.3,11.3-3.4.8-6.1-1.3-6.1-4.6V242.1a8,8,0,0,1,6.1-7.4A813.8,813.8,0,0,1,426,219.1a8.7,8.7,0,0,1,8.6,4.7C500,375.1,566.1,534.2,631.3,701.1c1.2,3.2,3,6,4,6.1s1.4-2.4,1-5.8q-5.1-97.8-10.1-195.7c-.2-3.3-.3-8.8-.3-12.1V228.4a5.2,5.2,0,0,1,6.2-5.1c20.5,3,41,6.8,61.3,11.4a8.1,8.1,0,0,1,6.2,7.4V798.5c0,3.3-2.8,5.4-6.2,4.6A816.4,816.4,0,0,0,595.4,787.2Z" fill="none" stroke="gray" stroke-linecap="square" stroke-linejoin="bevel" stroke-width="10.24"/><path d="M595.4,787.2a11,11,0,0,1-8.5-6.4C522.2,618.4,457.1,463.5,392.7,316.2c-1.2-2.9-3-5.1-3.9-5s-1.5,3-1.2,6.2l10.2,190.3c.2,3.3.3,8.7.3,12V784.9a7.3,7.3,0,0,1-6.2,6.9c-20.5,3-41,6.7-61.3,11.3-3.4.8-6.1-1.3-6.1-4.6V242.1a8,8,0,0,1,6.1-7.4A813.8,813.8,0,0,1,426,219.1a8.7,8.7,0,0,1,8.6,4.7C500,375.1,566.1,534.2,631.3,701.1c1.2,3.2,3,6,4,6.1s1.4-2.4,1-5.8q-5.1-97.8-10.1-195.7c-.2-3.3-.3-8.8-.3-12.1V228.4a5.2,5.2,0,0,1,6.2-5.1c20.5,3,41,6.8,61.3,11.4a8.1,8.1,0,0,1,6.2,7.4V798.5c0,3.3-2.8,5.4-6.2,4.6A816.4,816.4,0,0,0,595.4,787.2Z" fill="none" stroke="gray" stroke-linecap="square" stroke-linejoin="bevel" stroke-width="10.24"/></g></g></g></g></svg>
